# xmcd CD database file
#
# Track frame offsets:
#	150
#	22545
#	42360
#	64717
#
# Disc length: 1125 seconds
#
# Revision: 0
# Processed by: cddbd v1.5.1PL0 Copyright (c) Steve Scherf et al.
# Submitted via: CDex 1.51
#
DISCID=24046304
DTITLE=北島三郎 - 峠
DYEAR=2004
DGENRE=JPop
TTITLE0=峠
TTITLE1=門出酒
TTITLE2=峠 （オリジナル・カラオケ）
TTITLE3=門出酒 （オリジナル・カラオケ）
EXTD=YEAR: 2004
EXTT0=
EXTT1=
EXTT2=
EXTT3=
PLAYORDER=
